<mxfile host="65bd71144e">
    <diagram id="Mbf_HrjvOAnSkfYwlNyR" name="ページ1">
        <mxGraphModel dx="825" dy="537" grid="1" gridSize="10" guides="1" tooltips="1" connect="1" arrows="1" fold="1" page="1" pageScale="1" pageWidth="827" pageHeight="1169" math="0" shadow="0">
            <root>
                <mxCell id="0"/>
                <mxCell id="1" parent="0"/>
                <mxCell id="4" value="&lt;span style=&quot;font-size: 10px;&quot;&gt;プレイヤー&lt;/span&gt;" style="html=1;fontSize=2;" vertex="1" parent="1">
                    <mxGeometry x="110" y="650" width="110" height="50" as="geometry"/>
                </mxCell>
                <mxCell id="5" value="&lt;span style=&quot;font-size: 10px;&quot;&gt;盤面&lt;/span&gt;&lt;span style=&quot;color: rgba(0, 0, 0, 0); font-family: monospace; font-size: 0px; text-align: start;&quot;&gt;%3CmxGraphModel%3E%3Croot%3E%3CmxCell%20id%3D%220%22%2F%3E%3CmxCell%20id%3D%221%22%20parent%3D%220%22%2F%3E%3CmxCell%20id%3D%222%22%20value%3D%22%26lt%3Bfont%20style%3D%26quot%3Bfont-size%3A%2010px%3B%26quot%3B%26gt%3B%E5%AF%BE%E6%88%A6%26lt%3B%2Ffont%26gt%3B%22%20style%3D%22html%3D1%3BfontSize%3D2%3B%22%20vertex%3D%221%22%20parent%3D%221%22%3E%3CmxGeometry%20x%3D%22190%22%20y%3D%22570%22%20width%3D%22110%22%20height%3D%2250%22%20as%3D%22geometry%22%2F%3E%3C%2FmxCell%3E%3C%2Froot%3E%3C%2FmxGraphModel%3E&lt;/span&gt;" style="html=1;fontSize=2;" vertex="1" parent="1">
                    <mxGeometry x="630" y="580" width="110" height="50" as="geometry"/>
                </mxCell>
                <mxCell id="6" value="&lt;span style=&quot;font-size: 10px;&quot;&gt;石&lt;/span&gt;" style="html=1;fontSize=2;fontStyle=1" vertex="1" parent="1">
                    <mxGeometry x="500" y="810" width="110" height="50" as="geometry"/>
                </mxCell>
                <mxCell id="7" value="&lt;span style=&quot;font-size: 10px;&quot;&gt;勝敗&lt;/span&gt;" style="html=1;fontSize=2;" vertex="1" parent="1">
                    <mxGeometry x="304" y="790" width="110" height="50" as="geometry"/>
                </mxCell>
                <mxCell id="8" value="&lt;ul&gt;&lt;li&gt;黒 or 白&lt;/li&gt;&lt;li&gt;空&lt;/li&gt;&lt;/ul&gt;" style="shape=note;whiteSpace=wrap;html=1;backgroundOutline=1;darkOpacity=0.05;fillColor=#fff2cc;align=left;strokeColor=#d6b656;" vertex="1" parent="1">
                    <mxGeometry x="520" y="910" width="150" height="55" as="geometry"/>
                </mxCell>
                <mxCell id="12" value="" style="endArrow=none;dashed=1;html=1;fontSize=10;entryX=0.537;entryY=1.012;entryDx=0;entryDy=0;entryPerimeter=0;exitX=0.447;exitY=-0.033;exitDx=0;exitDy=0;exitPerimeter=0;" edge="1" parent="1" source="8" target="6">
                    <mxGeometry width="50" height="50" relative="1" as="geometry">
                        <mxPoint x="500" y="710" as="sourcePoint"/>
                        <mxPoint x="500" y="670" as="targetPoint"/>
                    </mxGeometry>
                </mxCell>
                <mxCell id="13" value="" style="endArrow=none;html=1;fontSize=10;exitX=1;exitY=0.5;exitDx=0;exitDy=0;" edge="1" parent="1" source="4" target="16">
                    <mxGeometry relative="1" as="geometry">
                        <mxPoint x="340" y="690" as="sourcePoint"/>
                        <mxPoint x="300" y="720" as="targetPoint"/>
                    </mxGeometry>
                </mxCell>
                <mxCell id="14" value="１" style="edgeLabel;resizable=0;html=1;align=left;verticalAlign=bottom;fontSize=10;" connectable="0" vertex="1" parent="13">
                    <mxGeometry x="-1" relative="1" as="geometry"/>
                </mxCell>
                <mxCell id="17" value="＊" style="edgeLabel;html=1;align=center;verticalAlign=middle;resizable=0;points=[];fontSize=10;" vertex="1" connectable="0" parent="13">
                    <mxGeometry x="0.6948" relative="1" as="geometry">
                        <mxPoint as="offset"/>
                    </mxGeometry>
                </mxCell>
                <mxCell id="16" value="&lt;font style=&quot;font-size: 10px;&quot;&gt;対戦(開始)&lt;/font&gt;" style="html=1;fontSize=2;" vertex="1" parent="1">
                    <mxGeometry x="304" y="650" width="110" height="50" as="geometry"/>
                </mxCell>
                <mxCell id="20" value="" style="endArrow=none;html=1;fontSize=10;exitX=0.5;exitY=1;exitDx=0;exitDy=0;entryX=0.466;entryY=-0.052;entryDx=0;entryDy=0;entryPerimeter=0;" edge="1" parent="1" source="16" target="7">
                    <mxGeometry relative="1" as="geometry">
                        <mxPoint x="317" y="730" as="sourcePoint"/>
                        <mxPoint x="401" y="730" as="targetPoint"/>
                    </mxGeometry>
                </mxCell>
                <mxCell id="21" value="１" style="edgeLabel;resizable=0;html=1;align=left;verticalAlign=bottom;fontSize=10;" connectable="0" vertex="1" parent="20">
                    <mxGeometry x="-1" relative="1" as="geometry"/>
                </mxCell>
                <mxCell id="24" value="0...1&lt;br&gt;" style="edgeLabel;html=1;align=center;verticalAlign=middle;resizable=0;points=[];fontSize=10;" vertex="1" connectable="0" parent="20">
                    <mxGeometry x="0.8522" y="-1" relative="1" as="geometry">
                        <mxPoint as="offset"/>
                    </mxGeometry>
                </mxCell>
                <mxCell id="25" value="&lt;span style=&quot;font-size: 10px;&quot;&gt;ターン&lt;/span&gt;" style="html=1;fontSize=2;" vertex="1" parent="1">
                    <mxGeometry x="460" y="650" width="110" height="50" as="geometry"/>
                </mxCell>
                <mxCell id="29" value="" style="endArrow=none;html=1;fontSize=10;exitX=0.991;exitY=0.393;exitDx=0;exitDy=0;entryX=0.006;entryY=0.415;entryDx=0;entryDy=0;entryPerimeter=0;exitPerimeter=0;" edge="1" parent="1" source="16" target="25">
                    <mxGeometry relative="1" as="geometry">
                        <mxPoint x="400" y="674.73" as="sourcePoint"/>
                        <mxPoint x="484" y="674.73" as="targetPoint"/>
                    </mxGeometry>
                </mxCell>
                <mxCell id="30" value="１" style="edgeLabel;resizable=0;html=1;align=left;verticalAlign=bottom;fontSize=10;" connectable="0" vertex="1" parent="29">
                    <mxGeometry x="-1" relative="1" as="geometry"/>
                </mxCell>
                <mxCell id="31" value="＊" style="edgeLabel;html=1;align=center;verticalAlign=middle;resizable=0;points=[];fontSize=10;" vertex="1" connectable="0" parent="29">
                    <mxGeometry x="0.6948" relative="1" as="geometry">
                        <mxPoint as="offset"/>
                    </mxGeometry>
                </mxCell>
                <mxCell id="37" value="" style="endArrow=none;html=1;fontSize=10;exitX=0.455;exitY=0;exitDx=0;exitDy=0;entryX=0;entryY=0.75;entryDx=0;entryDy=0;exitPerimeter=0;" edge="1" parent="1" source="25" target="5">
                    <mxGeometry relative="1" as="geometry">
                        <mxPoint x="472.35000000000025" y="600.0000000000001" as="sourcePoint"/>
                        <mxPoint x="519.9999999999999" y="601.1" as="targetPoint"/>
                    </mxGeometry>
                </mxCell>
                <mxCell id="38" value="１" style="edgeLabel;resizable=0;html=1;align=left;verticalAlign=bottom;fontSize=10;" connectable="0" vertex="1" parent="37">
                    <mxGeometry x="-1" relative="1" as="geometry"/>
                </mxCell>
                <mxCell id="39" value="１" style="edgeLabel;html=1;align=center;verticalAlign=middle;resizable=0;points=[];fontSize=10;" vertex="1" connectable="0" parent="37">
                    <mxGeometry x="0.6948" relative="1" as="geometry">
                        <mxPoint as="offset"/>
                    </mxGeometry>
                </mxCell>
                <mxCell id="41" value="&lt;span style=&quot;font-size: 10px;&quot;&gt;マス目&lt;/span&gt;" style="html=1;fontSize=2;" vertex="1" parent="1">
                    <mxGeometry x="640" y="720" width="110" height="50" as="geometry"/>
                </mxCell>
                <mxCell id="42" value="" style="endArrow=none;html=1;fontSize=10;exitX=0.455;exitY=0;exitDx=0;exitDy=0;entryX=0.5;entryY=1;entryDx=0;entryDy=0;exitPerimeter=0;" edge="1" parent="1" source="41" target="5">
                    <mxGeometry relative="1" as="geometry">
                        <mxPoint x="600" y="672.5" as="sourcePoint"/>
                        <mxPoint x="719.95" y="640" as="targetPoint"/>
                    </mxGeometry>
                </mxCell>
                <mxCell id="43" value="＊" style="edgeLabel;resizable=0;html=1;align=left;verticalAlign=bottom;fontSize=10;" connectable="0" vertex="1" parent="42">
                    <mxGeometry x="-1" relative="1" as="geometry"/>
                </mxCell>
                <mxCell id="44" value="１" style="edgeLabel;html=1;align=center;verticalAlign=middle;resizable=0;points=[];fontSize=10;" vertex="1" connectable="0" parent="42">
                    <mxGeometry x="0.6948" relative="1" as="geometry">
                        <mxPoint as="offset"/>
                    </mxGeometry>
                </mxCell>
                <mxCell id="46" value="" style="endArrow=none;html=1;fontSize=10;exitX=1.008;exitY=0.351;exitDx=0;exitDy=0;entryX=0;entryY=0.5;entryDx=0;entryDy=0;exitPerimeter=0;" edge="1" parent="1" source="6" target="41">
                    <mxGeometry relative="1" as="geometry">
                        <mxPoint x="565.05" y="790" as="sourcePoint"/>
                        <mxPoint x="560" y="700" as="targetPoint"/>
                    </mxGeometry>
                </mxCell>
                <mxCell id="47" value="１" style="edgeLabel;resizable=0;html=1;align=left;verticalAlign=bottom;fontSize=10;" connectable="0" vertex="1" parent="46">
                    <mxGeometry x="-1" relative="1" as="geometry"/>
                </mxCell>
                <mxCell id="48" value="１" style="edgeLabel;html=1;align=center;verticalAlign=middle;resizable=0;points=[];fontSize=10;" vertex="1" connectable="0" parent="46">
                    <mxGeometry x="0.6948" relative="1" as="geometry">
                        <mxPoint as="offset"/>
                    </mxGeometry>
                </mxCell>
            </root>
        </mxGraphModel>
    </diagram>
</mxfile>